<?xml version="1.0" encoding="utf-8"?>
<!-- Generator: Adobe Illustrator 24.1.0, SVG Export Plug-In . SVG Version: 6.00 Build 0)  -->
<svg version="1.1" id="Ebene_1" xmlns="http://www.w3.org/2000/svg" xmlns:xlink="http://www.w3.org/1999/xlink" x="0px" y="0px"
	 viewBox="0 0 150 30" style="enable-background:new 0 0 150 30;" xml:space="preserve">
<style type="text/css">
	.st0{fill:#A8A7A7;}
	.st1{fill:#B78C30;}
	.st2{fill:#E2C9A0;}
</style>
<g>
	<g>
		<path class="st0" d="M57.09,19.03c-0.33-0.33-0.78-0.64-1.36-0.92c-0.58-0.28-1.3-0.56-2.19-0.85c-0.43-0.14-0.79-0.28-1.07-0.4
			c-0.28-0.12-0.5-0.23-0.66-0.34c-0.16-0.11-0.27-0.22-0.32-0.33c-0.05-0.11-0.08-0.24-0.08-0.39c0-0.64,0.63-0.95,1.88-0.95
			c0.68,0,1.29,0.06,1.84,0.17c0.55,0.11,1.05,0.24,1.52,0.39l0.7-2.83c-0.47-0.16-1.1-0.31-1.89-0.45
			c-0.79-0.14-1.62-0.21-2.48-0.21c-1.72,0-3.08,0.35-4.07,1.05c-0.99,0.7-1.48,1.65-1.48,2.85c0,0.62,0.1,1.15,0.29,1.59
			c0.2,0.44,0.47,0.82,0.83,1.13c0.36,0.32,0.79,0.59,1.3,0.82c0.51,0.23,1.08,0.45,1.71,0.67c0.81,0.28,1.41,0.53,1.8,0.75
			c0.39,0.22,0.59,0.48,0.59,0.77c0,0.38-0.15,0.63-0.46,0.76c-0.3,0.13-0.82,0.2-1.56,0.2c-0.7,0-1.41-0.07-2.12-0.21
			c-0.72-0.14-1.41-0.33-2.09-0.57l-0.68,2.93c0.32,0.13,0.9,0.29,1.74,0.49c0.83,0.19,1.88,0.29,3.14,0.29
			c1.92,0,3.41-0.33,4.46-0.98c1.05-0.65,1.58-1.61,1.58-2.89c0-0.54-0.07-1.01-0.2-1.42C57.65,19.73,57.42,19.36,57.09,19.03z"/>
		<path class="st0" d="M20.92,12.49c-0.21-0.08-0.47-0.15-0.77-0.21c-0.3-0.06-0.6-0.1-0.9-0.15c-0.3-0.04-0.6-0.07-0.9-0.1
			c-0.3-0.02-0.56-0.04-0.77-0.04c-1.19,0-2.27,0.1-3.23,0.3c-0.97,0.2-1.8,0.42-2.51,0.64v12.11h3.97v-9.75
			c0.18-0.05,0.44-0.09,0.78-0.13c0.35-0.04,0.64-0.06,0.89-0.06c0.55,0,1.06,0.05,1.54,0.13c0.48,0.09,0.89,0.17,1.25,0.26
			L20.92,12.49z"/>
		<path class="st0" d="M32.62,14.99c-0.2-0.65-0.54-1.2-1.01-1.66c-0.48-0.45-1.11-0.8-1.9-1.05c-0.79-0.24-1.78-0.37-2.97-0.37
			c-0.47,0-0.93,0.02-1.39,0.06c-0.46,0.04-0.9,0.09-1.31,0.15c-0.41,0.06-0.8,0.12-1.15,0.19c-0.35,0.07-0.64,0.14-0.88,0.21
			l0.51,2.92c0.49-0.16,1.06-0.29,1.73-0.38c0.67-0.09,1.34-0.13,2.03-0.13c1.03,0,1.75,0.19,2.16,0.56
			c0.41,0.37,0.62,0.87,0.62,1.48v0.34c-0.25-0.06-0.58-0.12-0.98-0.16c-0.4-0.04-0.87-0.06-1.39-0.06c-0.77,0-1.52,0.07-2.24,0.21
			c-0.72,0.14-1.36,0.36-1.91,0.67c-0.56,0.31-1,0.72-1.33,1.24c-0.33,0.52-0.5,1.15-0.5,1.9c0,0.78,0.14,1.44,0.43,1.97
			c0.29,0.54,0.7,0.97,1.24,1.3c0.54,0.33,1.18,0.57,1.93,0.72c0.75,0.15,1.58,0.22,2.49,0.22c1.46,0,2.7-0.08,3.72-0.23
			c1.02-0.15,1.82-0.29,2.4-0.4v-7.55C32.92,16.36,32.82,15.63,32.62,14.99z M29.06,22.44c-0.22,0.03-0.5,0.06-0.86,0.07
			c-0.36,0.02-0.73,0.02-1.13,0.02c-0.74,0-1.31-0.11-1.73-0.33c-0.42-0.22-0.63-0.62-0.63-1.19c0-0.29,0.07-0.54,0.21-0.74
			c0.14-0.2,0.34-0.35,0.59-0.47c0.25-0.11,0.54-0.19,0.87-0.23c0.33-0.04,0.69-0.06,1.06-0.06c0.27,0,0.56,0.02,0.89,0.05
			c0.32,0.03,0.56,0.07,0.73,0.1V22.44z"/>
		<path class="st0" d="M44.9,13.59c-0.47-0.52-1.1-0.92-1.91-1.21c-0.8-0.28-1.81-0.43-3.02-0.43c-1.19,0-2.33,0.08-3.41,0.23
			c-1.08,0.15-1.97,0.32-2.65,0.5v12.37h4.05v-9.87c0.25-0.03,0.54-0.06,0.86-0.08c0.32-0.02,0.63-0.04,0.91-0.04
			c0.93,0,1.57,0.24,1.91,0.73c0.34,0.49,0.51,1.31,0.51,2.48v6.78h4.05v-7.23c0-0.88-0.1-1.67-0.3-2.39
			C45.71,14.73,45.37,14.11,44.9,13.59z"/>
		<path class="st0" d="M9.05,22.16c-0.46,0.07-0.91,0.11-1.34,0.11c-0.91,0-1.51-0.23-1.81-0.68c-0.3-0.45-0.45-1.06-0.45-1.82
			v-4.48h4.86v-3.02H5.45V8.5L1.4,9.08v10.74c0,0.83,0.09,1.58,0.26,2.26c0.17,0.68,0.48,1.26,0.91,1.74
			c0.43,0.48,1.01,0.85,1.74,1.12c0.72,0.27,1.64,0.4,2.74,0.4c0.87,0,1.6-0.07,2.2-0.19c0.6-0.13,1.14-0.28,1.63-0.46l-0.57-2.82
			C9.93,21.99,9.51,22.09,9.05,22.16z"/>
		<path class="st0" d="M108.45,19.03c-0.34-0.33-0.8-0.64-1.39-0.92c-0.59-0.28-1.33-0.56-2.23-0.85c-0.44-0.14-0.8-0.28-1.09-0.4
			c-0.29-0.12-0.51-0.23-0.67-0.34c-0.16-0.11-0.27-0.22-0.33-0.33c-0.05-0.11-0.08-0.24-0.08-0.39c0-0.64,0.64-0.95,1.92-0.95
			c0.7,0,1.32,0.06,1.88,0.17c0.56,0.11,1.08,0.24,1.55,0.39l0.72-2.83c-0.48-0.16-1.12-0.31-1.93-0.45
			c-0.81-0.14-1.65-0.21-2.53-0.21c-1.76,0-3.14,0.35-4.15,1.05c-1.01,0.7-1.51,1.65-1.51,2.85c0,0.62,0.1,1.15,0.3,1.59
			c0.2,0.44,0.48,0.82,0.84,1.13c0.36,0.32,0.81,0.59,1.33,0.82c0.52,0.23,1.11,0.45,1.75,0.67c0.83,0.28,1.44,0.53,1.84,0.75
			c0.4,0.22,0.6,0.48,0.6,0.77c0,0.38-0.16,0.63-0.47,0.76c-0.31,0.13-0.84,0.2-1.59,0.2c-0.71,0-1.43-0.07-2.17-0.21
			c-0.73-0.14-1.44-0.33-2.14-0.57l-0.69,2.93c0.33,0.13,0.92,0.29,1.77,0.49c0.85,0.19,1.92,0.29,3.2,0.29
			c1.96,0,3.48-0.33,4.55-0.98c1.07-0.65,1.61-1.61,1.61-2.89c0-0.54-0.07-1.01-0.21-1.42C109.02,19.73,108.78,19.36,108.45,19.03z"
			/>
		<path class="st0" d="M117.88,22.16c-0.46,0.07-0.91,0.11-1.34,0.11c-0.91,0-1.51-0.23-1.81-0.68c-0.3-0.45-0.45-1.06-0.45-1.82
			v-4.48h4.86v-3.02h-4.86V8.5l-4.05,0.58v10.74c0,0.83,0.09,1.58,0.26,2.26c0.17,0.68,0.48,1.26,0.91,1.74
			c0.43,0.48,1.01,0.85,1.74,1.12c0.72,0.27,1.64,0.4,2.74,0.4c0.87,0,1.6-0.07,2.2-0.19c0.6-0.13,1.14-0.28,1.63-0.46l-0.57-2.82
			C118.76,21.99,118.34,22.09,117.88,22.16z"/>
		<path class="st0" d="M67.91,12.28h-4.94v-0.63c0-0.34,0.04-0.66,0.12-0.95c0.08-0.29,0.22-0.54,0.4-0.75
			c0.19-0.21,0.45-0.38,0.78-0.5C64.6,9.32,65,9.26,65.49,9.26c0.36,0,0.75,0.04,1.17,0.11c0.42,0.07,0.81,0.18,1.17,0.33l0.78-2.89
			c-0.34-0.13-0.82-0.26-1.45-0.4c-0.63-0.14-1.32-0.21-2.07-0.21c-2.03,0-3.55,0.49-4.58,1.46c-1.03,0.97-1.55,2.28-1.55,3.94
			v13.46h4.01v-9.77h4.94V12.28z"/>
		<path class="st0" d="M80.09,13.59c-1.2-1.12-2.83-1.67-4.9-1.67c-0.89,0-1.75,0.15-2.59,0.44c-0.84,0.29-1.58,0.72-2.23,1.29
			c-0.65,0.57-1.17,1.28-1.56,2.13c-0.4,0.85-0.6,1.85-0.6,2.99c0,0.94,0.15,1.82,0.46,2.63c0.3,0.81,0.77,1.51,1.41,2.11
			c0.64,0.59,1.44,1.06,2.4,1.4c0.97,0.34,2.11,0.51,3.41,0.51c0.52,0,1.03-0.02,1.55-0.07c0.52-0.05,1-0.11,1.45-0.18
			c0.45-0.07,0.86-0.16,1.23-0.26c0.37-0.1,0.66-0.19,0.88-0.29l-0.55-2.94c-0.46,0.18-1.05,0.33-1.78,0.45
			c-0.73,0.12-1.47,0.18-2.22,0.18c-1.18,0-2.12-0.22-2.82-0.66c-0.7-0.44-1.1-1.03-1.19-1.77h9.36c0.02-0.2,0.04-0.42,0.05-0.67
			c0.02-0.25,0.03-0.49,0.03-0.7C81.89,16.35,81.29,14.71,80.09,13.59z M72.45,17.41c0.05-0.32,0.14-0.63,0.26-0.94
			c0.12-0.31,0.29-0.58,0.51-0.81c0.22-0.23,0.5-0.42,0.83-0.56c0.33-0.14,0.73-0.21,1.19-0.21c0.48,0,0.88,0.08,1.2,0.23
			c0.32,0.15,0.59,0.34,0.8,0.57c0.21,0.23,0.37,0.5,0.47,0.8c0.1,0.3,0.16,0.61,0.18,0.92H72.45z"/>
		<path class="st0" d="M132.13,14.99c-0.2-0.65-0.54-1.2-1.01-1.66c-0.48-0.45-1.11-0.8-1.91-1.05c-0.8-0.24-1.79-0.37-2.98-0.37
			c-0.47,0-0.93,0.02-1.39,0.06c-0.46,0.04-0.9,0.09-1.31,0.15c-0.41,0.06-0.8,0.12-1.15,0.19c-0.35,0.07-0.65,0.14-0.88,0.21
			l0.51,2.92c0.49-0.16,1.06-0.29,1.73-0.38c0.67-0.09,1.34-0.13,2.03-0.13c1.03,0,1.75,0.19,2.17,0.56
			c0.41,0.37,0.62,0.87,0.62,1.48v0.34c-0.25-0.06-0.58-0.12-0.99-0.16c-0.41-0.04-0.87-0.06-1.39-0.06c-0.77,0-1.52,0.07-2.24,0.21
			c-0.72,0.14-1.36,0.36-1.92,0.67c-0.56,0.31-1,0.72-1.34,1.24c-0.33,0.52-0.5,1.15-0.5,1.9c0,0.78,0.14,1.44,0.43,1.97
			c0.29,0.54,0.7,0.97,1.24,1.3c0.54,0.33,1.18,0.57,1.93,0.72c0.75,0.15,1.58,0.22,2.5,0.22c1.46,0,2.7-0.08,3.73-0.23
			c1.03-0.15,1.83-0.29,2.41-0.4v-7.55C132.43,16.36,132.33,15.63,132.13,14.99z M128.56,22.44c-0.22,0.03-0.5,0.06-0.86,0.07
			c-0.36,0.02-0.74,0.02-1.13,0.02c-0.74,0-1.32-0.11-1.74-0.33c-0.42-0.22-0.63-0.62-0.63-1.19c0-0.29,0.07-0.54,0.21-0.74
			c0.14-0.2,0.34-0.35,0.59-0.47c0.25-0.11,0.54-0.19,0.88-0.23c0.33-0.04,0.69-0.06,1.06-0.06c0.27,0,0.57,0.02,0.89,0.05
			c0.32,0.03,0.57,0.07,0.73,0.1V22.44z"/>
		<path class="st0" d="M90.46,12.14c-0.31-0.04-0.61-0.07-0.92-0.1c-0.31-0.02-0.57-0.04-0.78-0.04c-1.21,0-2.3,0.1-3.29,0.3
			c-0.98,0.2-1.83,0.42-2.56,0.64v12.11h4.04v-9.75c0.18-0.05,0.45-0.09,0.8-0.13c0.35-0.04,0.65-0.06,0.9-0.06
			c0.56,0,1.08,0.05,1.56,0.13c0.49,0.09,0.91,0.17,1.27,0.26l0.67-3.01c-0.22-0.08-0.48-0.15-0.78-0.21
			C91.07,12.23,90.76,12.18,90.46,12.14z"/>
		<g>
			<path class="st0" d="M96.89,7c-0.48-0.38-1.05-0.57-1.7-0.57c-0.65,0-1.22,0.19-1.7,0.57c-0.48,0.38-0.72,0.9-0.72,1.57
				c0,0.66,0.24,1.19,0.72,1.57c0.48,0.38,1.05,0.57,1.7,0.57c0.65,0,1.22-0.19,1.7-0.57c0.48-0.38,0.72-0.9,0.72-1.57
				C97.61,7.9,97.37,7.38,96.89,7z"/>
			<rect x="93.17" y="12.28" class="st0" width="4.05" height="12.78"/>
		</g>
	</g>
	<g>
		<path class="st1" d="M137.04,13.79l2.43-2.43l-2.3-2.29h-6.67l4.72,4.71C135.72,14.28,136.53,14.29,137.04,13.79z"/>
		<path class="st0" d="M141.22,4.89l-2.98,2.98l2.81,2.8h8.2l-5.79-5.78C142.84,4.27,141.84,4.27,141.22,4.89z"/>
		<path class="st2" d="M136.45,16.65l2.43,2.43c0.5,0.5,1.32,0.5,1.83,0l6.8-6.8h-6.68L136.45,16.65z"/>
	</g>
</g>
</svg>
